{"title":"Pandemic 2016 BluRay 720p H264 AC3 [ITRG][IndexTorrent]","uid":14647296,"size":850747912,"categoryP":"video","categoryS":"hd___movies","magnet":"?xt=urn:btih:b68f069f3b325c0ab42f6f64705ae7cd648eec5a&amp;dn=Pandemic+2016+BluRay+720p+H264+AC3+%5BITRG%5D%5BIndexTorrent%5D&amp;tr=udp%3A%2F%2Ftracker.leechers-paradise.org%3A6969&amp;tr=udp%3A%2F%2Fzer0day.ch%3A1337&amp;tr=udp%3A%2F%2Fopen.demonii.com%3A1337&amp;tr=udp%3A%2F%2Ftracker.coppersurfer.tk%3A6969&amp;tr=udp%3A%2F%2Fexodus.desync.com%3A6969","seeders":0,"leechers":2,"uploader":"ITRG","files":5,"time":1463604572,"description":"SCREEN SHOTS \nhttp://extraimago.com/images/2016/05/18/1545d6.jpg \nhttp://extraimago.com/images/2016/05/18/2db5cf.jpg \nhttp://extraimago.com/images/2016/05/18/343d85.jpg\r\n\r\nGeneral\r\nUnique ID                   : 253810224189767776087348313003667626063 (0xBEF2123356C9642C80E76206353E184F)\r\nComplete name               : C:BDConvertedPandemic 2016 BluRay .mkvPandemic 2016 BluRay 720p H264 AC3 [ITRG][IndexTorrent.com].mkvPandemic 2016 BluRay 720p H264 AC3 [ITRG][IndexTorrent.com].mkv\r\nFormat                      : Matroska\r\nFormat version              : Version 2\r\nFile size                   : 811 MiB\r\nDuration                    : 1h 32mn\r\nOverall bit rate            : 1 232 Kbps\r\nEncoded date                : UTC 2016-05-13T11:10:27Z\r\nWriting application         : HandBrake 0.10.3 2016012200\r\nWriting library             : Lavf55.12.0 / Lavf55.12.0\r\n\r\nVideo\r\nID                          : 1\r\nFormat                      : AVC\r\nFormat/Info                 : Advanced Video Codec\r\nFormat profile              :   \r\nFormat settings, CABAC      : Yes\r\nFormat settings, ReFrames   : 4 frames\r\nCodec ID                    : V_MPEG4/ISO/AVC\r\nDuration                    : 1h 32mn\r\nBit rate                    : 1 150 Kbps\r\nWidth                       : 720 pixels\r\nHeight                      : 320 pixels\r\nDisplay aspect ratio        : 2.25:1\r\nFrame rate mode             : Constant\r\nFrame rate                  : 23.976 (24000/1001) fps\r\nColor space                 : YUV\r\nChroma subsampling          : 4:2:0\r\nBit depth                   : 8 bits\r\nScan type                   : Progressive\r\nBits/(Pixel*Frame)          : 0.208\r\nStream size                 : 732 MiB (90%)\r\n\r\nDefault                     : Yes\r\nForced                      : No\r\nColor range                 : Limited\r\nColor primaries             : BT.709\r\nTransfer characteristics    : BT.709\r\nMatrix coefficients         : BT.709\r\n\r\nAudio\r\nID                          : 2\r\nFormat                      : AC-3\r\nFormat/Info                 : Audio Coding 3\r\nMode extension              : CM (complete main)\r\nFormat settings, Endianness : Big\r\nCodec ID                    : A_AC3\r\nDuration                    : 1h 32mn\r\nBit rate mode               : Constant\r\nBit rate                    : 96.0 Kbps\r\nChannel(s)                  : 2 channels\r\nChannel positions           : Front: L R\r\nSampling rate               : 48.0 KHz\r\nFrame rate                  : 31.250 fps (1536 spf)\r\nCompression mode            : Lossy\r\nDelay relative to video     : -5ms\r\nStream size                 : 63.2 MiB (8%)\r\nTitle                       : Stereo\r\nLanguage                    : German\r\nDefault                     : Yes\r\nForced                      : No","torrent":{"xt":"urn:btih:b68f069f3b325c0ab42f6f64705ae7cd648eec5a","amp;dn":"Pandemic+2016+BluRay+720p+H264+AC3+%5BITRG%5D%5BIndexTorrent%5D","amp;tr":["udp%3A%2F%2Ftracker.leechers-paradise.org%3A6969","udp%3A%2F%2Fzer0day.ch%3A1337","udp%3A%2F%2Fopen.demonii.com%3A1337","udp%3A%2F%2Ftracker.coppersurfer.tk%3A6969","udp%3A%2F%2Fexodus.desync.com%3A6969"],"infoHash":"b68f069f3b325c0ab42f6f64705ae7cd648eec5a","infoHashBuffer":{"type":"Buffer","data":[182,143,6,159,59,50,92,10,180,47,111,100,112,90,231,205,100,142,236,90]},"announce":[],"urlList":[]}}